<?xml version="1.0" ?><svg height="48px" version="1.1" viewBox="0 0 48 48" width="48px" xmlns="http://www.w3.org/2000/svg" xmlns:xlink="http://www.w3.org/1999/xlink"><title/><desc/><g fill="none" fill-rule="evenodd" id="Page-1" stroke="none" stroke-width="1"><g id="Artboard-Copy" transform="translate(-107.000000, -189.000000)"><path d="M119.0005,210.0005 C117.3445,210.0005 115.9995,211.3435 115.9995,213.0005 L115.9995,226.0005 C115.9995,227.6575 117.3445,229.0005 119.0005,229.0005 L143.0005,229.0005 C144.6575,229.0005 146.0005,227.6575 146.0005,226.0005 L146.0005,213.0005 C146.0005,211.3435 144.6575,210.0005 143.0005,210.0005 L142.0005,210.0005 L142.0005,203.9995 C142.0005,199.0295 136.9715,195.0005 131.9995,195.0005 L129.9995,195.0005 C125.0305,195.0005 119.9995,199.0295 119.9995,203.9995 L119.9995,210.0005 L119.0005,210.0005 Z M139.0005,210.0005 L123.0005,210.0005 L123.0005,204.1435 C123.0005,200.1965 126.5825,198.0005 131.0005,198.0005 C135.4185,198.0005 139.0005,200.1965 139.0005,204.1435 L139.0005,210.0005 Z" fill="#000000" id="locked"/><g id="slices" transform="translate(47.000000, 9.000000)"/></g></g></svg>